<?xml version="1.0" encoding="UTF-8"?>
<!DOCTYPE svg PUBLIC "-//W3C//DTD SVG 1.1//EN" "http://www.w3.org/Graphics/SVG/1.1/DTD/svg11.dtd">
<svg xmlns="http://www.w3.org/2000/svg" version="1.1" width="414px" height="444px" style="shape-rendering:geometricPrecision; text-rendering:geometricPrecision; image-rendering:optimizeQuality; fill-rule:evenodd; clip-rule:evenodd" xmlns:xlink="http://www.w3.org/1999/xlink">
<g><path style="opacity:1" fill="#208ba7" d="M 59.5,43.5 C 148.834,43.3333 238.167,43.5 327.5,44C 329.723,44.5662 331.723,45.3995 333.5,46.5C 332.504,46.4142 331.671,46.7476 331,47.5C 327.688,46.0237 324.188,45.1904 320.5,45C 232.476,44.3517 144.476,44.3517 56.5,45C 57.7375,44.7679 58.7375,44.2679 59.5,43.5 Z"/></g>
<g><path style="opacity:1" fill="#0193bb" d="M 59.5,43.5 C 58.7375,44.2679 57.7375,44.7679 56.5,45C 144.476,44.3517 232.476,44.3517 320.5,45C 324.188,45.1904 327.688,46.0237 331,47.5C 331.671,46.7476 332.504,46.4142 333.5,46.5C 339.113,49.1129 343.446,53.1129 346.5,58.5C 347.563,62.7801 348.563,67.1134 349.5,71.5C 350.5,160.831 350.833,250.164 350.5,339.5C 350.5,339.833 350.5,340.167 350.5,340.5C 347.274,342.951 345.608,346.284 345.5,350.5C 342.789,354.212 339.456,357.212 335.5,359.5C 330.492,360.167 325.492,361 320.5,362C 231.157,362.807 141.824,362.641 52.5,361.5C 52.9175,360.778 53.5842,360.278 54.5,360C 52.5,359.667 50.5,359.333 48.5,359C 45.5334,355.193 41.8667,352.359 37.5,350.5C 36.6764,345.029 34.6764,340.029 31.5,335.5C 31.3333,246.166 31.5,156.833 32,67.5C 36.3837,53.9457 45.5503,45.9457 59.5,43.5 Z M 319.5,75.5 C 319.667,160.501 319.5,245.501 319,330.5C 234.237,331.665 149.403,331.832 64.5,331C 63.3351,246.237 63.1684,161.403 64,76.5C 149.096,75.5016 234.263,75.1683 319.5,75.5 Z"/></g>
<g><path style="opacity:1" fill="#228caa" d="M 346.5,58.5 C 348.837,60.9647 350.337,63.9647 351,67.5C 351.832,158.334 351.666,249.001 350.5,339.5C 350.833,250.164 350.5,160.831 349.5,71.5C 348.563,67.1134 347.563,62.7801 346.5,58.5 Z"/></g>
<g><path style="opacity:1" fill="#1c89a7" d="M 319.5,75.5 C 320.666,160.666 320.832,245.999 320,331.5C 234.57,332.665 149.07,332.832 63.5,332C 62.335,246.57 62.1684,161.07 63,75.5C 148.598,74.1672 234.098,74.1672 319.5,75.5 Z M 319.5,75.5 C 234.263,75.1683 149.096,75.5016 64,76.5C 63.1684,161.403 63.3351,246.237 64.5,331C 149.403,331.832 234.237,331.665 319,330.5C 319.5,245.501 319.667,160.501 319.5,75.5 Z"/></g>
<g><path style="opacity:1" fill="#2a9abb" d="M 264.5,266.5 C 257.015,274.987 248.349,281.987 238.5,287.5C 238.714,285.856 238.38,284.356 237.5,283C 238,282.5 238.5,282 239,281.5C 240.814,282.76 242.647,282.76 244.5,281.5C 242.867,279.497 240.867,278.164 238.5,277.5C 238.5,276.167 238.5,274.833 238.5,273.5C 240.39,273.703 241.89,273.037 243,271.5C 243.179,273.424 243.346,275.091 243.5,276.5C 245.828,275.783 247.995,274.783 250,273.5C 251,273.833 252,274.167 253,274.5C 254.4,272.604 256.233,271.271 258.5,270.5C 258.291,269.914 257.957,269.414 257.5,269C 259.58,268.211 261.414,267.044 263,265.5C 263.765,265.57 264.265,265.903 264.5,266.5 Z"/></g>
<g><path style="opacity:1" fill="#2799b9" d="M 138.5,283.5 C 128.235,277.569 119.902,269.569 113.5,259.5C 115.086,260.413 116.586,260.413 118,259.5C 119.236,261.307 119.57,263.307 119,265.5C 119.414,265.957 119.914,266.291 120.5,266.5C 122.898,263.429 124.898,260.095 126.5,256.5C 127.72,256.887 128.387,257.72 128.5,259C 127.73,260.775 126.563,262.275 125,263.5C 125.319,265.743 125.152,267.91 124.5,270C 130.037,271.736 135.371,274.569 140.5,278.5C 139.271,279.281 137.938,279.781 136.5,280C 137.305,281.113 137.972,282.279 138.5,283.5 Z"/></g>
<g><path style="opacity:1" fill="#399ebb" d="M 285.5,223.5 C 284.207,231.729 281.541,239.396 277.5,246.5C 277.208,243.235 277.875,240.235 279.5,237.5C 278.56,234.868 278.393,232.202 279,229.5C 279.853,231.125 280.853,231.458 282,230.5C 282.497,228.19 282.663,225.857 282.5,223.5C 283.5,223.5 284.5,223.5 285.5,223.5 Z"/></g>
<g><path style="opacity:1" fill="#5aacc3" d="M 96.5,189.5 C 96.5308,200.844 96.8642,212.178 97.5,223.5C 95.975,217.07 95.3083,210.404 95.5,203.5C 95.5008,198.654 95.8341,193.988 96.5,189.5 Z"/></g>
<g><path style="opacity:1" fill="#51a8c0" d="M 286.5,189.5 C 287.166,193.988 287.499,198.654 287.5,203.5C 287.692,210.404 287.025,217.07 285.5,223.5C 286.259,212.183 286.593,200.85 286.5,189.5 Z"/></g>
<g><path style="opacity:1" fill="#2a99ba" d="M 273.5,153.5 C 279.634,162.554 283.634,172.554 285.5,183.5C 284.5,183.5 283.5,183.5 282.5,183.5C 282.657,184.873 282.49,186.207 282,187.5C 281.333,188.833 280.667,188.833 280,187.5C 279.716,183.472 278.882,179.638 277.5,176C 277.693,173.496 278.359,171.163 279.5,169C 277.068,164.042 275.068,158.876 273.5,153.5 Z"/></g>
<g><path style="opacity:1" fill="#309bb9" d="M 211.5,109.5 C 224.89,111.953 236.89,117.287 247.5,125.5C 244.843,125.162 242.51,125.829 240.5,127.5C 240.788,125.952 240.788,124.285 240.5,122.5C 238.402,123.484 236.402,123.151 234.5,121.5C 233.614,120.675 233.281,119.675 233.5,118.5C 231.409,118.318 229.409,118.652 227.5,119.5C 227.949,116.897 226.616,115.23 223.5,114.5C 220.957,115.047 218.957,116.38 217.5,118.5C 216.692,118.192 216.025,117.692 215.5,117C 216.747,115.542 216.747,114.042 215.5,112.5C 213.668,111.943 212.335,110.943 211.5,109.5 Z"/></g>
<g><path style="opacity:1" fill="#0494bb" d="M 211.5,109.5 C 212.335,110.943 213.668,111.943 215.5,112.5C 216.747,114.042 216.747,115.542 215.5,117C 216.025,117.692 216.692,118.192 217.5,118.5C 218.957,116.38 220.957,115.047 223.5,114.5C 226.616,115.23 227.949,116.897 227.5,119.5C 229.409,118.652 231.409,118.318 233.5,118.5C 233.281,119.675 233.614,120.675 234.5,121.5C 236.402,123.151 238.402,123.484 240.5,122.5C 240.788,124.285 240.788,125.952 240.5,127.5C 242.51,125.829 244.843,125.162 247.5,125.5C 258.62,132.618 267.287,141.951 273.5,153.5C 275.068,158.876 277.068,164.042 279.5,169C 278.359,171.163 277.693,173.496 277.5,176C 278.882,179.638 279.716,183.472 280,187.5C 280.667,188.833 281.333,188.833 282,187.5C 282.49,186.207 282.657,184.873 282.5,183.5C 283.5,183.5 284.5,183.5 285.5,183.5C 286.461,185.265 286.795,187.265 286.5,189.5C 286.593,200.85 286.259,212.183 285.5,223.5C 284.5,223.5 283.5,223.5 282.5,223.5C 282.663,225.857 282.497,228.19 282,230.5C 280.853,231.458 279.853,231.125 279,229.5C 278.393,232.202 278.56,234.868 279.5,237.5C 277.875,240.235 277.208,243.235 277.5,246.5C 274.159,253.857 269.826,260.524 264.5,266.5C 264.265,265.903 263.765,265.57 263,265.5C 261.414,267.044 259.58,268.211 257.5,269C 257.957,269.414 258.291,269.914 258.5,270.5C 256.233,271.271 254.4,272.604 253,274.5C 252,274.167 251,273.833 250,273.5C 247.995,274.783 245.828,275.783 243.5,276.5C 243.346,275.091 243.179,273.424 243,271.5C 241.89,273.037 240.39,273.703 238.5,273.5C 238.5,274.833 238.5,276.167 238.5,277.5C 240.867,278.164 242.867,279.497 244.5,281.5C 242.647,282.76 240.814,282.76 239,281.5C 238.5,282 238,282.5 237.5,283C 238.38,284.356 238.714,285.856 238.5,287.5C 219.613,298.206 199.28,302.04 177.5,299C 163.168,296.841 150.168,291.674 138.5,283.5C 137.972,282.279 137.305,281.113 136.5,280C 137.938,279.781 139.271,279.281 140.5,278.5C 135.371,274.569 130.037,271.736 124.5,270C 125.152,267.91 125.319,265.743 125,263.5C 126.563,262.275 127.73,260.775 128.5,259C 128.387,257.72 127.72,256.887 126.5,256.5C 124.898,260.095 122.898,263.429 120.5,266.5C 119.914,266.291 119.414,265.957 119,265.5C 119.57,263.307 119.236,261.307 118,259.5C 116.586,260.413 115.086,260.413 113.5,259.5C 105.287,248.89 99.9535,236.89 97.5,223.5C 96.8642,212.178 96.5308,200.844 96.5,189.5C 104.361,146.802 129.361,119.969 171.5,109C 185.016,106.843 198.349,107.01 211.5,109.5 Z"/></g>
<g><path style="opacity:1" fill="#55acc0" d="M 31.5,335.5 C 34.6764,340.029 36.6764,345.029 37.5,350.5C 33.9564,346.22 31.9564,341.22 31.5,335.5 Z"/></g>
<g><path style="opacity:1" fill="#55abbf" d="M 350.5,340.5 C 349.868,344.431 348.201,347.765 345.5,350.5C 345.608,346.284 347.274,342.951 350.5,340.5 Z"/></g>
<g><path style="opacity:1" fill="#41a0ba" d="M 37.5,350.5 C 41.8667,352.359 45.5334,355.193 48.5,359C 50.5,359.333 52.5,359.667 54.5,360C 53.5842,360.278 52.9175,360.778 52.5,361.5C 46.121,359.798 41.121,356.131 37.5,350.5 Z"/></g>
<g><path style="opacity:1" fill="#218bab" d="M 335.5,359.5 C 333.142,361.129 330.476,362.295 327.5,363C 236.833,363.667 146.167,363.667 55.5,363C 54.2625,362.768 53.2625,362.268 52.5,361.5C 141.824,362.641 231.157,362.807 320.5,362C 325.492,361 330.492,360.167 335.5,359.5 Z"/></g>
</svg>
